<svg width="121" height="45" viewBox="0 0 121 45" fill="none" xmlns="http://www.w3.org/2000/svg">
<g clip-path="url(#clip0_32_2)">
<path d="M38.1752 6.69508C36.3041 4.7864 34.0915 3.21926 31.6419 2.07863C31.5422 2.02797 31.4409 1.98058 31.3363 1.93646C30.8542 1.72075 30.3673 1.51648 29.8688 1.33509C28.4733 0.82851 27.014 0.45756 25.5057 0.236951C24.45 0.0833412 23.3731 0 22.2766 0C9.99278 0 0 9.99277 0 22.275C0 31.8445 6.06593 40.0218 14.5537 43.1691C15.5521 43.5384 16.5849 43.8391 17.6438 44.063C19.1391 44.38 20.6882 44.5516 22.275 44.5516C30.7366 44.5516 38.1098 39.8093 41.8798 32.843C43.5826 29.6973 44.5516 26.0972 44.5516 22.275C44.5516 16.214 42.1151 10.7134 38.1752 6.69344V6.69508ZM6.64442 34.1928C4.01182 30.7219 2.62116 26.5793 2.62116 22.2145C2.62116 14.7628 6.75227 8.25732 12.846 4.86974C13.0078 4.77986 13.1663 4.99394 13.0323 5.11977C12.475 5.64432 11.9407 6.20483 11.4308 6.8013C7.89944 10.9308 5.86493 16.5473 5.84696 22.2145C5.84696 29.5731 10.769 37.5134 18.7207 37.5134C25.8162 37.5134 31.5896 30.65 31.5896 22.2145C31.5896 18.2517 30.261 14.4442 27.9912 11.6204C27.9111 11.5207 28.0059 11.3802 28.1285 11.4161C31.9638 12.5502 34.8334 16.9624 34.8334 22.2145C34.8334 26.8522 33.1502 31.4703 30.2169 34.884C27.1758 38.4219 23.0921 40.3715 18.7207 40.3731C14.1173 40.3731 9.7117 38.1164 6.64442 34.1928ZM38.2602 10.2477C40.8895 13.7104 42.2785 17.8465 42.2736 22.2096C42.2736 29.6613 38.1425 36.1668 32.0488 39.5544C31.887 39.6443 31.7285 39.4302 31.8625 39.3044C32.4197 38.7798 32.9541 38.2193 33.464 37.6228C36.9953 33.4934 39.0298 27.8768 39.0478 22.2096C39.0478 14.8511 34.1258 6.91078 26.174 6.91078C19.0786 6.91078 13.3052 13.7742 13.3052 22.2096C13.3052 26.174 14.6337 29.98 16.9036 32.8054C16.9836 32.9051 16.8889 33.0456 16.7663 33.0097C12.931 31.8756 10.0614 27.465 10.0614 22.2145C10.0614 17.5768 11.7446 12.9604 14.6795 9.54829C17.7223 6.01037 21.806 4.06084 26.1789 4.06084C30.7791 4.06084 35.1831 6.31596 38.2618 10.2477H38.2602ZM29.2609 22.2145C29.2609 27.4683 26.7084 32.0047 23.0496 34.0408C22.5969 34.2925 22.038 34.2614 21.6181 33.9558L20.8353 33.3855C17.6259 31.0438 15.6338 26.7623 15.6338 22.2113C15.6338 16.9575 18.1864 12.4227 21.8452 10.3866C22.2995 10.1349 22.8567 10.166 23.2767 10.4716L24.0595 11.0419C27.2689 13.3836 29.2626 17.6651 29.2626 22.2162L29.2609 22.2145Z" fill="#0500E1"/>
<path d="M63.0324 15.5295C62.0372 14.8938 60.8753 14.5752 59.5451 14.5752C58.2149 14.5752 57.0482 14.8938 56.0481 15.5295C55.0463 16.1652 54.2718 17.0754 53.7243 18.2602C53.1769 19.4449 52.9023 20.8552 52.9023 22.4926C52.9023 24.13 53.1769 25.519 53.7243 26.7022C54.2734 27.8869 55.048 28.8004 56.0481 29.4426C57.0498 30.0865 58.2149 30.4068 59.5451 30.4068C60.8753 30.4068 62.0372 30.0848 63.0324 29.4426C64.0259 28.7988 64.8005 27.8853 65.3561 26.7022C65.9117 25.5174 66.1895 24.1153 66.1895 22.4926C66.1895 20.8699 65.9117 19.427 65.3561 18.2504C64.8005 17.0738 64.0259 16.1668 63.0324 15.5312V15.5295ZM62.4523 25.3425C62.1679 26.1318 61.7725 26.7348 61.2675 27.1515C60.7626 27.5682 60.189 27.7758 59.5468 27.7758C58.9045 27.7758 58.3261 27.5682 57.8146 27.1515C57.3031 26.7348 56.9044 26.1318 56.62 25.3425C56.334 24.5533 56.1919 23.6022 56.1919 22.4926C56.1919 21.383 56.334 20.432 56.62 19.6427C56.9044 18.8534 57.3031 18.2504 57.8146 17.8337C58.3261 17.417 58.9029 17.2094 59.5468 17.2094C60.1906 17.2094 60.7642 17.4186 61.2675 17.8337C61.7725 18.2504 62.1663 18.8501 62.4523 19.6312C62.7382 20.414 62.8804 21.3667 62.8804 22.4926C62.8804 23.6185 62.7382 24.5533 62.4523 25.3425Z" fill="#0500E1"/>
<path d="M71.8745 15.3644L68.1159 29.2464C67.9934 29.699 68.3349 30.1435 68.8023 30.1435H70.4805C70.8041 30.1435 71.0868 29.9262 71.1685 29.6124L71.7437 27.4292C71.8254 27.1171 72.1081 26.8981 72.4317 26.8981H76.2621C76.5873 26.8981 76.87 27.1171 76.9517 27.4325L77.5139 29.6108C77.5956 29.9246 77.8783 30.1452 78.2035 30.1452H79.9667C80.4357 30.1452 80.7773 29.699 80.6531 29.2464L76.8749 15.3644C76.79 15.0539 76.5089 14.8398 76.1886 14.8398H72.5624C72.2405 14.8398 71.9594 15.0555 71.8761 15.366L71.8745 15.3644ZM73.5004 24.2672C73.0331 24.2672 72.6932 23.8259 72.8125 23.3749L73.4432 20.9793L73.672 20.0249C73.8469 19.2977 74.8813 19.2977 75.0561 20.0249L75.2849 20.9793L75.9043 23.3782C76.0203 23.8292 75.6804 24.2688 75.2146 24.2688H73.5004V24.2672Z" fill="#0500E1"/>
<path d="M97.8281 15.5504V16.758C97.8281 17.1519 98.1468 17.4705 98.5406 17.4705H99.6829C100.077 17.4705 100.395 17.7892 100.395 18.183V26.8031C100.395 27.1969 100.077 27.5156 99.6829 27.5156H98.5406C98.1468 27.5156 97.8281 27.8342 97.8281 28.2281V29.4357C97.8281 29.8295 98.1468 30.1482 98.5406 30.1482H105.429C105.822 30.1482 106.141 29.8295 106.141 29.4357V28.2281C106.141 27.8342 105.822 27.5156 105.429 27.5156H104.286C103.892 27.5156 103.574 27.1969 103.574 26.8031V18.183C103.574 17.7892 103.892 17.4705 104.286 17.4705H105.429C105.822 17.4705 106.141 17.1519 106.141 16.758V15.5504C106.141 15.1566 105.822 14.8379 105.429 14.8379H98.5406C98.1468 14.8379 97.8281 15.1566 97.8281 15.5504Z" fill="#0500E1"/>
<path d="M120.553 23.6872C120.253 23.125 119.858 22.6707 119.368 22.3276C118.878 21.9844 118.345 21.7131 117.766 21.517C117.188 21.3193 116.608 21.151 116.023 21.0121C115.438 20.8732 114.902 20.7261 114.411 20.5741C113.921 20.4205 113.531 20.2195 113.238 19.9711C112.946 19.7227 112.8 19.3943 112.8 18.9841C112.8 18.4138 113.016 17.9758 113.447 17.6686C113.879 17.3614 114.423 17.2078 115.081 17.2078C115.534 17.2078 115.962 17.283 116.341 17.4823C116.845 17.7471 117.188 18.1523 117.379 18.4416C117.51 18.6393 117.732 18.7553 117.969 18.7553H119.889C120.387 18.7553 120.74 18.2536 120.557 17.7912C120.427 17.4627 120.262 17.1588 120.057 16.8777C119.516 16.1325 118.811 15.5622 117.941 15.1667C117.072 14.7713 116.117 14.5752 115.08 14.5752C113.954 14.5752 112.975 14.7729 112.142 15.1667C111.308 15.5606 110.661 16.0982 110.202 16.778C109.741 17.4578 109.511 18.2226 109.511 19.0691C109.511 19.9156 109.656 20.5643 109.949 21.097C110.241 21.6314 110.632 22.0579 111.122 22.3798C111.612 22.7018 112.148 22.9649 112.733 23.1691C113.318 23.3734 113.898 23.5499 114.477 23.6953C115.055 23.8408 115.588 23.9993 116.078 24.166C116.568 24.3343 116.959 24.55 117.252 24.8131C117.544 25.0762 117.69 25.4275 117.69 25.8655C117.69 26.4652 117.467 26.9326 117.021 27.2692C116.575 27.6058 115.98 27.7742 115.233 27.7742C114.312 27.7742 113.611 27.5029 113.129 26.9636C112.928 26.7381 112.774 26.4652 112.66 26.1531C112.548 25.8459 112.263 25.6383 111.936 25.6383H110.208C109.735 25.6383 109.396 26.0926 109.522 26.5485C109.636 26.9636 109.793 27.3509 109.993 27.7088C110.475 28.5716 111.163 29.2367 112.053 29.7041C112.946 30.1714 114.006 30.4051 115.233 30.4051C116.345 30.4051 117.335 30.2107 118.204 29.825C119.074 29.4377 119.757 28.9033 120.255 28.2252C120.752 27.5454 121 26.7528 121 25.8459C121 24.9389 120.85 24.2493 120.551 23.6855L120.553 23.6872Z" fill="#0500E1"/>
<path d="M94.3191 23.6872C94.0201 23.125 93.6246 22.6707 93.1344 22.3276C92.6441 21.9844 92.1114 21.7131 91.5329 21.517C90.9544 21.3193 90.3743 21.151 89.7893 21.0121C89.2043 20.8732 88.6683 20.7261 88.178 20.5741C87.6878 20.4205 87.2972 20.2195 87.0047 19.9711C86.7122 19.7227 86.5668 19.3943 86.5668 18.9841C86.5668 18.4138 86.7825 17.9758 87.2139 17.6686C87.6453 17.3614 88.1895 17.2078 88.848 17.2078C89.3007 17.2078 89.7288 17.283 90.1079 17.4823C90.6113 17.7471 90.9544 18.1523 91.1456 18.4416C91.2764 18.6393 91.4986 18.7553 91.7356 18.7553H93.6557C94.1541 18.7553 94.5071 18.2536 94.324 17.7912C94.1933 17.4627 94.0283 17.1588 93.824 16.8777C93.2831 16.1325 92.5771 15.5622 91.7078 15.1667C90.8384 14.7713 89.8841 14.5752 88.8464 14.5752C87.7205 14.5752 86.7416 14.7729 85.9082 15.1667C85.0748 15.5606 84.4277 16.0982 83.9685 16.778C83.5077 17.4578 83.2772 18.2226 83.2772 19.0691C83.2772 19.9156 83.4227 20.5643 83.7152 21.097C84.0077 21.6314 84.3983 22.0579 84.8885 22.3798C85.3787 22.7018 85.9147 22.9649 86.4998 23.1691C87.0848 23.3734 87.6649 23.5499 88.2434 23.6953C88.8219 23.8408 89.3546 23.9993 89.8449 24.166C90.3351 24.3343 90.7257 24.55 91.0182 24.8131C91.3107 25.0762 91.4561 25.4275 91.4561 25.8655C91.4561 26.4652 91.2339 26.9326 90.7878 27.2692C90.3416 27.6058 89.7468 27.7742 89 27.7742C88.0783 27.7742 87.3773 27.5029 86.8952 26.9636C86.6942 26.7381 86.5406 26.4652 86.4262 26.1531C86.3118 25.841 86.0291 25.6383 85.7023 25.6383H83.975C83.5011 25.6383 83.1628 26.0926 83.2887 26.5485C83.4031 26.9636 83.5599 27.3509 83.7593 27.7088C84.2414 28.5716 84.9294 29.2367 85.82 29.7041C86.7122 30.1714 87.7728 30.4051 89 30.4051C90.1112 30.4051 91.1015 30.2107 91.9709 29.825C92.8402 29.4377 93.5233 28.9033 94.0217 28.2252C94.5185 27.5454 94.7669 26.7528 94.7669 25.8459C94.7669 24.9389 94.6165 24.2493 94.3175 23.6855L94.3191 23.6872Z" fill="#0500E1"/>
</g>
<defs>
<clipPath id="clip0_32_2">
<rect width="121" height="45" fill="white"/>
</clipPath>
</defs>
</svg>
