<svg width="341" height="341" viewBox="0 0 341 341" fill="none" xmlns="http://www.w3.org/2000/svg">
<g clip-path="url(#clip0_33_9)">
<path fill-rule="evenodd" clip-rule="evenodd" d="M114.414 127.377C120.983 85.2141 138.693 54.8319 170.256 38.7529C206.684 59.1015 220.54 90.9878 226.436 126.94C220.543 136.333 215.902 146.929 212.739 158.943C222.608 163.513 226.078 170.733 226.722 179.126V209.295C226.722 220.435 246.286 219.503 246.286 209.295V198.582H265.935V209.052C265.935 248.41 206.43 245.771 206.43 209.052V191.217C206.43 184.589 197.568 185.453 197.568 191.217V273.038C197.568 285.081 216.116 285.081 216.116 273.038V262.607H236.631V273.785C236.631 309.641 176.871 313.638 176.871 273.785V196.729C176.871 187.957 164.361 187.957 164.361 196.729V274.872C164.361 312.561 104.359 310.155 104.359 274.872V263.034H124.759V274.28C124.759 285.44 143.571 283.683 143.571 274.28V190.004C143.571 186.152 134.778 186.152 134.778 190.004V210.285C134.778 245.49 75.0515 245.49 75.0515 210.285V198.291H94.422V209.169C94.422 220.105 113.275 220.105 113.275 209.169V175.924C115.424 167.87 120.23 162.106 127.843 158.758C123.393 144.077 118.911 134.538 114.414 127.377Z" fill="#0D08E3"/>
</g>
<defs>
<clipPath id="clip0_33_9">
<rect width="341" height="341" fill="white"/>
</clipPath>
</defs>
</svg>
