<svg width="1246" height="315" viewBox="0 0 1246 315" fill="none" xmlns="http://www.w3.org/2000/svg">
<g clip-path="url(#clip0_33_16)">
<path fill-rule="evenodd" clip-rule="evenodd" d="M59.7522 110.883C66.8417 65.4342 85.9571 32.6838 120.024 15.3516C159.342 37.2862 174.298 71.6579 180.661 110.412C174.301 120.538 169.292 131.96 165.878 144.909C176.53 149.836 180.276 157.618 180.97 166.666V199.187C180.97 211.195 202.087 210.191 202.087 199.187V187.639H223.295V198.925C223.295 241.351 159.069 238.506 159.069 198.925V179.7C159.069 172.555 149.503 173.486 149.503 179.7V267.898C149.503 280.879 169.523 280.879 169.523 267.898V256.654H191.666V268.704C191.666 307.354 127.164 311.663 127.164 268.704V185.641C127.164 176.185 113.662 176.185 113.662 185.641V269.875C113.662 310.502 48.8994 307.908 48.8994 269.875V257.114H70.917V269.237C70.917 281.266 91.2221 279.373 91.2221 269.237V178.392C91.2221 174.239 81.731 174.239 81.731 178.392V200.254C81.731 238.203 17.2661 238.203 17.2661 200.254V187.325H38.1735V199.051C38.1735 210.839 58.5226 210.839 58.5226 199.051V163.214C60.8414 154.533 66.029 148.319 74.2465 144.711C69.4434 128.885 64.6056 118.602 59.7522 110.883Z" fill="#0D08E3"/>
<path d="M262.641 176.697C266.123 198.116 275.638 214.805 290.493 227.323C305.116 239.84 323.916 245.96 345.734 245.96C390.995 245.96 420.937 220.647 420.937 183.373C420.937 147.767 395.869 129.13 345.734 123.845C316.489 120.785 304.883 112.441 304.883 96.5851C304.883 82.3986 320.435 72.3844 342.717 72.3844C363.839 72.3844 380.553 87.127 385.891 110.215L415.366 98.8099C411.653 81.8417 402.833 68.49 389.835 58.476C376.837 48.1838 360.821 43.1768 342.717 43.1768C303.491 43.1768 274.247 65.43 274.247 96.0283C274.247 130.243 296.529 149.715 341.326 154.444C374.981 158.06 390.3 168.074 390.3 184.485C390.068 203.679 373.355 216.475 345.734 216.475C317.185 216.475 297.457 198.115 291.422 166.683L262.641 176.697Z" fill="#0D08E3"/>
<path d="M534.669 42.8994C477.107 41.7867 434.169 88.5184 434.865 144.986C434.169 201.176 477.107 246.795 534.669 245.961C543.954 245.961 553.237 244.848 562.986 242.345C572.27 260.426 584.574 271.83 605.927 271.83C635.869 271.83 647.705 248.464 647.705 228.158C647.705 225.933 647.705 224.264 647.473 223.429L620.55 219.813C620.782 222.038 621.012 223.986 621.012 225.655C621.012 236.503 616.603 245.961 604.301 245.961C597.106 245.961 591.303 241.51 586.429 232.331C615.674 214.806 633.547 182.539 633.547 144.986C634.475 88.5184 591.767 41.7867 534.669 42.8994ZM497.533 206.461C477.572 194.222 465.502 171.69 465.502 144.986C465.502 103.539 494.283 72.3851 534.437 72.3851C574.127 72.3851 602.91 103.539 602.91 144.986C602.91 170.577 592.001 192.275 573.897 204.514C565.309 187.824 554.631 177.81 535.599 177.81C516.798 177.81 502.871 188.937 497.533 206.461ZM534.437 216.475C530.027 216.475 525.153 215.919 520.279 215.085C521.671 206.461 527.242 201.732 534.902 201.732C541.633 201.732 546.044 206.183 550.454 214.806C545.58 215.919 540.24 216.475 534.437 216.475Z" fill="#0D08E3"/>
<path d="M655.829 166.684C655.829 212.859 687.396 245.962 734.978 245.962C782.095 245.962 813.43 212.581 813.43 166.684L813.197 47.0723H782.561L782.793 166.406C782.793 197.282 764.687 216.476 734.978 216.476C704.804 216.476 686.468 197.282 686.468 166.406L686.701 47.0723H656.061L655.829 166.684Z" fill="#0D08E3"/>
<path d="M870.064 47.0723H839.424V241.789H870.064V47.0723Z" fill="#0D08E3"/>
<path d="M897.683 241.789H968.709C1022.33 242.902 1062.71 198.395 1062.01 144.709C1062.71 90.7443 1022.33 46.2376 968.709 47.0721H897.683V241.789ZM928.322 211.191V77.6706H968.244C1004.22 77.6706 1030.21 106.043 1030.21 144.709C1030.21 183.374 1004.22 211.191 968.244 211.191H928.322Z" fill="#0D08E3"/>
<path d="M1085.23 241.789H1220.31V212.304H1115.86V47.0723H1085.23V241.789Z" fill="#0D08E3"/>
</g>
<defs>
<clipPath id="clip0_33_16">
<rect width="1246" height="315" fill="white"/>
</clipPath>
</defs>
</svg>
